<svg id="Layer_1" data-name="Layer 1" xmlns="http://www.w3.org/2000/svg" width="79.79" height="79.79" viewBox="0 0 79.79 79.79"><defs><style>.cls-1{fill:#bcbec0;}</style></defs><title>Artboard 1</title><path class="cls-1" d="M68.8,71.67A32.45,32.45,0,0,0,53.31,57.23l0,0a32.14,32.14,0,0,0-7.45-2.27,19.35,19.35,0,0,0,10.38-11,3.88,3.88,0,0,0,3.14,1.6h1.56a6.78,6.78,0,0,0,6.78-6.77v-2.9a6.77,6.77,0,0,0-5.08-6.55V27c0-11.32-10.08-20.54-22.46-20.54S17.68,15.67,17.68,27v2.3a6.77,6.77,0,0,0-5.08,6.55v2.9a6.78,6.78,0,0,0,6.78,6.77h1.56a3.87,3.87,0,0,0,3.14-1.6,19.38,19.38,0,0,0,10.38,11,32.35,32.35,0,0,0-23,16.73,1.21,1.21,0,0,0,0,1.22,1.24,1.24,0,0,0,1.06.6H67.7a1.25,1.25,0,0,0,1.1-1.82ZM24.54,28.6a10.91,10.91,0,0,1,2.51-11c5.7-6.38,15.53-5.83,19.53-4.12C51,15.33,55.93,20,56.87,25.18a11.72,11.72,0,0,1-.11,4.8.28.28,0,0,1,0,.09A3.86,3.86,0,0,0,55.6,32c-13.79-3.44-21.86-15.48-21.94-15.6a1.24,1.24,0,0,0-2.28.56C30.8,22.9,26.63,26.93,24.54,28.6Zm40.67,7.24v2.9A4.3,4.3,0,0,1,60.91,43H59.35a1.4,1.4,0,0,1-1.4-1.4V33a1.4,1.4,0,0,1,1.4-1.4h1.56A4.3,4.3,0,0,1,65.21,35.84ZM40.15,8.94c11,0,20,8.1,20,18v2.07h-.69a14.3,14.3,0,0,0-.13-4.32c-1.14-6.36-6.89-11.5-11.75-13.58-5.29-2.26-16-2.32-22.36,4.74a13.38,13.38,0,0,0-3,13.36,4,4,0,0,0-1.22-.2h-.78V27C20.16,17,29.13,8.94,40.15,8.94ZM22.35,41.63A1.41,1.41,0,0,1,20.94,43H19.38a4.3,4.3,0,0,1-4.3-4.29v-2.9a4.3,4.3,0,0,1,4.3-4.29h1.56A1.41,1.41,0,0,1,22.35,33Zm5.6,4.5a17.05,17.05,0,0,0,5.73,1.43,1.68,1.68,0,0,0,1.2.5h5.34a1.69,1.69,0,1,0,0-3.37H34.88a1.67,1.67,0,0,0-1.07.39,13.79,13.79,0,0,1-7.77-3,22.75,22.75,0,0,1-.9-10.79A21.19,21.19,0,0,0,33.32,20c3.23,4,10.82,11.78,22.11,14.44,0,.12,0,.23,0,.35,0,10.34-6.86,18.74-15.29,18.74C35.17,53.57,30.75,50.65,28,46.13Zm22.72,12.7L39.46,70.41,29.52,58.87a29.94,29.94,0,0,1,21.15,0ZM27.12,59.89,36.7,71h-22A29.93,29.93,0,0,1,27.12,59.89ZM42.34,71,53.12,59.87A29.85,29.85,0,0,1,65.55,71Z"/></svg>