<svg id="Layer_1" data-name="Layer 1" xmlns="http://www.w3.org/2000/svg" width="79.79" height="79.79" viewBox="0 0 79.79 79.79"><defs><style>.cls-1{fill:#bcbec0;}</style></defs><title>Artboard 1</title><rect class="cls-1" x="25.93" y="35.72" width="2.42" height="2.42"/><polygon class="cls-1" points="28.07 34.6 28.39 28.82 28.39 22.15 25.88 22.15 25.88 28.82 26.2 34.6 28.07 34.6"/><path class="cls-1" d="M63.67,57.58C68,55,70.5,51,70.5,46.81,70.5,39.2,62.31,33,52.25,33a22.7,22.7,0,0,0-9.46,2V19.11a4.65,4.65,0,0,0-4.65-4.64h-22a4.64,4.64,0,0,0-4.64,4.64V42.8a4.64,4.64,0,0,0,4.64,4.64h.36L13.41,52.8a1.14,1.14,0,0,0,1,1.71,1.19,1.19,0,0,0,.67-.22l9.34-6.85H34c.44,7.32,8.44,13.17,18.22,13.17a24,24,0,0,0,4.42-.41L67,65.63a1.12,1.12,0,0,0,.53.13,1.14,1.14,0,0,0,.91-1.83ZM19.45,46.87s0,0,0-.06a1.34,1.34,0,0,0,.06-.12l0-.09a.5.5,0,0,0,0-.12.49.49,0,0,0,0-.12.13.13,0,0,0,0-.06v0s0-.08,0-.12,0-.07,0-.11l0-.1a1.17,1.17,0,0,1-.05-.11l0-.09-.06-.1a.27.27,0,0,1-.07-.08l-.08-.08-.08-.07-.1-.07,0,0-.06,0-.11-.05-.11,0-.1,0H16.13a2.36,2.36,0,0,1-2.36-2.36V19.11a2.36,2.36,0,0,1,2.36-2.36h22a2.36,2.36,0,0,1,2.36,2.36V36.26a13.33,13.33,0,0,0-6.36,8.9H23.79l-.1,0-.11,0-.08,0-.12.07h0l-5.28,3.87ZM57.38,58l-.06,0-.07,0-.15,0-.06,0h-.22l-.18,0h0a21.74,21.74,0,0,1-4.37.44c-8.8,0-16-5.17-16-11.52,0-3.57,2.26-6.77,5.81-8.88a.82.82,0,0,0,.2-.12,20.08,20.08,0,0,1,10-2.52c8.8,0,16,5.17,16,11.52,0,3.71-2.51,7.21-6.72,9.38h-.05l-.15.09,0,0-.05,0-.12.12s0,0,0,0l-.1.14s0,0,0,0a1.11,1.11,0,0,0-.07.16s0,0,0,.06a.83.83,0,0,0,0,.15v.09a.56.56,0,0,0,0,.13s0,.06,0,.1,0,.08,0,.12l0,.1a.49.49,0,0,0,0,.11v0l.07.11,0,0,0,0v0l2.48,3.29Z"/><path class="cls-1" d="M59.52,42H45a1.14,1.14,0,1,0,0,2.28H59.52a1.14,1.14,0,0,0,0-2.28Z"/><path class="cls-1" d="M59.52,45.55H45a1.15,1.15,0,0,0,0,2.29H59.52a1.15,1.15,0,0,0,0-2.29Z"/><path class="cls-1" d="M59.52,49.36H45a1.15,1.15,0,0,0,0,2.29H59.52a1.15,1.15,0,0,0,0-2.29Z"/></svg>