<svg id="Layer_1" data-name="Layer 1" xmlns="http://www.w3.org/2000/svg" width="79.79" height="79.79" viewBox="0 0 79.79 79.79"><defs><style>.cls-1{fill:#bcbec0;}</style></defs><title>Artboard 1</title><path class="cls-1" d="M62.82,42.78a1.41,1.41,0,0,1-1-.41L57,37.49l2-2,2.44,2.43-.16-1.07a20,20,0,0,0-38-5.24l-2.58-1.09A22.76,22.76,0,0,1,64.09,37.3l.08.75,2.54-2.54,2,2-4.88,4.88A1.43,1.43,0,0,1,62.82,42.78Z"/><path class="cls-1" d="M41.55,64.14A22.7,22.7,0,0,1,18.92,43.81l-.08-.75L16.29,45.6l-2-2,4.89-4.88a1.35,1.35,0,0,1,1-.41,1.38,1.38,0,0,1,1,.41l4.88,4.88-2,2-2.44-2.44.15,1.07a20,20,0,0,0,38.57,3.82l2.66.89A22.73,22.73,0,0,1,41.55,64.14Z"/><path class="cls-1" d="M38.11,47.6a1.19,1.19,0,0,1-.28-.6l-.16-.7L32.73,47a6.61,6.61,0,0,0,.32,1.57L33.7,50a8.12,8.12,0,0,0,3.92,3.7,8.82,8.82,0,0,0,1.57.59L39,55.91h2.82l.17-1.3c.38,0,.6-.06,1-.06A8,8,0,0,0,47,40.1a8.81,8.81,0,0,0-2.33-1.36l-1-.38L44.19,33a3.61,3.61,0,0,1,.76.93l4.4-2.39A8.71,8.71,0,0,0,45.66,28a9.22,9.22,0,0,0-1-.38l.22-2.12H42.13L42,27.17a9.73,9.73,0,0,0-1.36.11A7.67,7.67,0,0,0,36,29.56a7.31,7.31,0,0,0-2.12,4.73,7.15,7.15,0,0,0,.65,3.64,7.58,7.58,0,0,0,2.34,2.93,10.27,10.27,0,0,0,2.34,1.36l1.14.44-.65,6.46A4,4,0,0,1,38.11,47.6Zm5-4.08.76.44a3.35,3.35,0,0,1,1,1.3,2.5,2.5,0,0,1,.21,1.47,3.1,3.1,0,0,1-.81,1.9,4.09,4.09,0,0,1-1.79.93ZM40,37a3.93,3.93,0,0,1-.87-1.14,1.83,1.83,0,0,1-.22-1.19A3.11,3.11,0,0,1,39.63,33a2.85,2.85,0,0,1,1.68-.82h.11l-.54,5.27A3.58,3.58,0,0,1,40,37Z"/></svg>