<svg id="Layer_1" data-name="Layer 1" xmlns="http://www.w3.org/2000/svg" width="79.79" height="79.79" viewBox="0 0 79.79 79.79"><defs><style>.cls-1{fill:#bcbec0;}</style></defs><title>Artboard 1</title><path class="cls-1" d="M40.83,20.14A20.23,20.23,0,1,0,61.05,40.36,20.25,20.25,0,0,0,40.83,20.14Zm17.66,19h-7a54.38,54.38,0,0,0-2.21-14.33A17.76,17.76,0,0,1,58.49,39.11ZM42.09,58V41.62H48.9a52.74,52.74,0,0,1-2.66,15.6A17.33,17.33,0,0,1,42.09,58Zm-6.67-.8a52.77,52.77,0,0,1-2.67-15.6h6.82V58A17.23,17.23,0,0,1,35.42,57.22Zm.1-33.75a17.48,17.48,0,0,1,4-.76v16.4H32.76a49.51,49.51,0,0,1,2.72-15.5A.57.57,0,0,0,35.52,23.47Zm6.57,15.64V22.71a17.58,17.58,0,0,1,4,.76.57.57,0,0,0,0,.14,49.35,49.35,0,0,1,2.71,15.5ZM32.42,24.78A53.86,53.86,0,0,0,30.2,39.11h-7A17.76,17.76,0,0,1,32.42,24.78ZM23.17,41.62h7a55.73,55.73,0,0,0,2.18,14.3A17.73,17.73,0,0,1,23.17,41.62Zm26.11,14.3a56.17,56.17,0,0,0,2.18-14.3h7A17.73,17.73,0,0,1,49.28,55.92Z"/><path class="cls-1" d="M66,29.81a1.26,1.26,0,1,0-2.32,1A24.8,24.8,0,1,1,51.83,18.13l-1.39,2.08,9.36,2L54.39,14.3,53.23,16l-.18-.12A27.34,27.34,0,1,0,66,29.81Z"/></svg>