<svg id="Layer_1" data-name="Layer 1" xmlns="http://www.w3.org/2000/svg" width="79.79" height="79.79" viewBox="0 0 79.79 79.79"><defs><style>.cls-1{fill:#bcbec0;}</style></defs><title>Artboard 1</title><path class="cls-1" d="M68.41,17.39H12.52a1.08,1.08,0,0,0-1.08,1.08V53.8a1.08,1.08,0,0,0,1.08,1.08H34.06v5.81H28.15a1.09,1.09,0,0,0,0,2.17H52.78a1.09,1.09,0,1,0,0-2.17h-5.9V54.88H68.41A1.08,1.08,0,0,0,69.5,53.8V18.47A1.08,1.08,0,0,0,68.41,17.39Zm-1.08,2.17V48H13.61V19.56ZM44.71,60.69H36.22V54.88h8.49Zm1.09-8H13.61V50.12H67.33v2.59Z"/></svg>