<svg id="Layer_1" data-name="Layer 1" xmlns="http://www.w3.org/2000/svg" width="79.79" height="79.79" viewBox="0 0 79.79 79.79"><defs><style>.cls-1{fill:#bcbec0;}</style></defs><title>Artboard 1</title><path class="cls-1" d="M34,64.64h1.9a1.34,1.34,0,0,0,0-2.66H34a1.34,1.34,0,0,0,0,2.66Z"/><path class="cls-1" d="M54.51,35.28a1,1,0,0,0,.47.11A1.12,1.12,0,0,0,55.8,35L64,26.4a1.45,1.45,0,0,0,.38-1,1.42,1.42,0,0,0-.38-1L55.8,15.81a1.11,1.11,0,0,0-1.29-.25,1.34,1.34,0,0,0-.72,1.23v3H50.37V14.15a1.27,1.27,0,0,0-1.19-1.34H20.64a1.27,1.27,0,0,0-1.19,1.34V67.3a1.27,1.27,0,0,0,1.19,1.34H49.18a1.27,1.27,0,0,0,1.19-1.34V50.94h9.94A1.27,1.27,0,0,0,61.5,49.6V41.08a1.27,1.27,0,0,0-1.19-1.33H50.37V31h3.42v3A1.34,1.34,0,0,0,54.51,35.28ZM48,66H21.83V60.65H48Zm11.13-17.7H44.51a1.27,1.27,0,0,0-1.19,1.33v1.3L38,45.34l5.3-5.55v1.29a1.27,1.27,0,0,0,1.19,1.34H59.12ZM48,39.75H45.7v-3A1.35,1.35,0,0,0,45,35.48a1.11,1.11,0,0,0-1.29.25l-8.22,8.64a1.42,1.42,0,0,0-.38,1,1.45,1.45,0,0,0,.38,1L43.69,55a1.12,1.12,0,0,0,.82.36A1,1,0,0,0,45,55.2,1.34,1.34,0,0,0,45.7,54v-3H48V58H21.83V15.48H48v4.35H39.18A1.27,1.27,0,0,0,38,21.16v8.52A1.27,1.27,0,0,0,39.18,31H48Zm-7.62-11.4V22.5H55a1.27,1.27,0,0,0,1.19-1.34V19.87l5.3,5.55L56.17,31v-1.3A1.27,1.27,0,0,0,55,28.35Z"/></svg>