<svg id="Layer_1" data-name="Layer 1" xmlns="http://www.w3.org/2000/svg" width="301.06" height="201.06" viewBox="0 0 301.06 201.06"><defs><style>.cls-1{fill:none;}.cls-2{fill:#fff;}</style></defs><title>Artboard 1</title><polygon class="cls-1" points="91.19 63.2 102.11 63.2 102.11 59.52 91.19 59.52 91.19 48.65 102.78 48.65 102.78 44.93 86.8 44.93 86.8 79.33 103.49 79.33 103.49 75.6 91.19 75.6 91.19 63.2"/><polygon class="cls-1" points="259.46 44.93 255.07 44.93 255.07 59.47 242.16 59.47 242.16 44.93 237.77 44.93 237.77 79.33 242.16 79.33 242.16 63.35 255.07 63.35 255.07 79.33 259.46 79.33 259.46 44.93"/><path class="cls-1" d="M117.78,59.88a17.44,17.44,0,0,1-4.59-3,5,5,0,0,1-1.33-3.64,4.65,4.65,0,0,1,1.51-3.51,5.76,5.76,0,0,1,4.16-1.44,10.33,10.33,0,0,1,5.3,1.37L123.91,46a12.12,12.12,0,0,0-6.23-1.48,10.51,10.51,0,0,0-7.38,2.6,8.65,8.65,0,0,0-2.83,6.64q0,5.91,7.76,9.69a12.14,12.14,0,0,1,4.23,3,5.88,5.88,0,0,1,1.28,3.8A5.35,5.35,0,0,1,119,74.45,6.67,6.67,0,0,1,114.36,76a12.59,12.59,0,0,1-6.48-1.79l-1,3.68a13.72,13.72,0,0,0,7.35,1.83,11.34,11.34,0,0,0,8-2.71,9.18,9.18,0,0,0,3-7.09,9.28,9.28,0,0,0-1.75-5.65A16,16,0,0,0,117.78,59.88Z"/><path class="cls-1" d="M75.88,48.25A11.6,11.6,0,0,1,81,49.32l1-3.63a14.21,14.21,0,0,0-6.28-1.17,13.84,13.84,0,0,0-10.9,4.78q-4.2,4.79-4.21,13.18,0,8.15,3.87,12.7A13,13,0,0,0,75,79.73a16,16,0,0,0,7-1.27l-.76-3.58a13.52,13.52,0,0,1-5.41,1,9.43,9.43,0,0,1-7.68-3.46Q65.26,69,65.27,62.18q0-6.61,2.91-10.27A9.33,9.33,0,0,1,75.88,48.25Z"/><path class="cls-1" d="M205.71,61.31q0-7.81-3.84-12.2t-12-4.39a35.74,35.74,0,0,0-7.45.72V79.22a52.44,52.44,0,0,0,6.28.36q8.44,0,12.72-4.62T205.71,61.31Zm-7.49,11Q195.33,76,189.74,76a16.41,16.41,0,0,1-2.91-.16V48.55a18.92,18.92,0,0,1,3.42-.3c3.61,0,6.32,1.13,8.14,3.41s2.73,5.55,2.73,9.8Q201.12,68.66,198.22,72.33Z"/><path class="cls-1" d="M139.68,59.88a17.71,17.71,0,0,1-4.6-3,5,5,0,0,1-1.32-3.64,4.68,4.68,0,0,1,1.5-3.51,5.76,5.76,0,0,1,4.16-1.44,10.4,10.4,0,0,1,5.31,1.37L145.8,46a12.1,12.1,0,0,0-6.23-1.48,10.48,10.48,0,0,0-7.37,2.6,8.63,8.63,0,0,0-2.84,6.64q0,5.91,7.76,9.69a12.09,12.09,0,0,1,4.24,3,5.94,5.94,0,0,1,1.28,3.8,5.35,5.35,0,0,1-1.71,4.16A6.7,6.7,0,0,1,136.25,76a12.61,12.61,0,0,1-6.48-1.79l-1,3.68a13.77,13.77,0,0,0,7.35,1.83,11.32,11.32,0,0,0,8-2.71,9.18,9.18,0,0,0,3-7.09,9.34,9.34,0,0,0-1.74-5.65A16.18,16.18,0,0,0,139.68,59.88Z"/><path class="cls-1" d="M233.13,79.33l-9.64-34.4h-5.1l-9.75,34.4H213l2.86-10.42h9.79l2.91,10.42ZM216.65,65.44l2.55-9.18c.31-1.08.82-3.42,1.53-7h.16l1.07,5q.4,1.86,3,11.25Z"/><rect class="cls-1" x="171.11" y="44.93" width="4.39" height="34.4"/><path class="cls-1" d="M20.76,44.93,11,79.33H15.4l2.86-10.42h9.8L31,79.33h4.54l-9.65-34.4ZM19,65.44l2.55-9.18c.3-1.08.81-3.42,1.53-7h.15l1.07,5q.42,1.86,3,11.25Z"/><path class="cls-1" d="M286.71,75.09q3.53-4.7,3.52-13.27,0-8-3.39-12.66a10.69,10.69,0,0,0-9.11-4.69,11.27,11.27,0,0,0-9.46,4.83q-3.6,4.85-3.61,13t3.45,12.78a10.77,10.77,0,0,0,9.16,4.72A11.2,11.2,0,0,0,286.71,75.09Zm-15.28-3a20.08,20.08,0,0,1-2.22-10A20.53,20.53,0,0,1,271.4,52.1q2.19-4,6-4t6,4A20.12,20.12,0,0,1,285.59,62a20.86,20.86,0,0,1-2.2,10.21q-2.19,3.93-6,3.93T271.43,72.14Z"/><path class="cls-1" d="M52.81,48.25A11.53,11.53,0,0,1,58,49.32l1-3.63a14.13,14.13,0,0,0-6.27-1.17,13.84,13.84,0,0,0-10.9,4.78Q37.6,54.09,37.6,62.48q0,8.15,3.87,12.7a13,13,0,0,0,10.42,4.55,16,16,0,0,0,7-1.27l-.76-3.58a13.56,13.56,0,0,1-5.41,1A9.41,9.41,0,0,1,45,72.45Q42.2,69,42.19,62.18q0-6.61,2.91-10.27A9.36,9.36,0,0,1,52.81,48.25Z"/><path class="cls-2" d="M190.25,48.25a18.92,18.92,0,0,0-3.42.3v27.3a16.41,16.41,0,0,0,2.91.16q5.58,0,8.48-3.68t2.9-10.87q0-6.37-2.73-9.8C196.57,49.38,193.86,48.25,190.25,48.25Z"/><path class="cls-2" d="M220.89,49.22h-.16c-.71,3.62-1.22,6-1.53,7l-2.55,9.18H225q-2.61-9.39-3-11.25Z"/><path class="cls-2" d="M23.26,49.22h-.15c-.72,3.62-1.23,6-1.53,7L19,65.44h8.31q-2.6-9.39-3-11.25Z"/><path class="cls-2" d="M283.39,72.18A20.86,20.86,0,0,0,285.59,62a20.12,20.12,0,0,0-2.19-9.88q-2.17-3.95-6-4t-6,4a20.53,20.53,0,0,0-2.19,10.08,20.08,20.08,0,0,0,2.22,10q2.2,4,5.94,4T283.39,72.18Z"/><polygon class="cls-2" points="269.93 91.55 268.85 94.5 270.97 94.5 269.95 91.55 269.93 91.55"/><polygon class="cls-2" points="180.91 91.56 179.83 94.51 181.95 94.51 180.93 91.56 180.91 91.56"/><path class="cls-2" d="M-.87.11V201.28l4.1-.72,6.82-3.63,3.56-2.42,6.23-2.72L22.21,187l5.93-2.72,2.37-3.33,3.85-3.63L37.92,174l5.34-2.42,2.67-1.21,2.67.61,1.18-1.51,5.34-3,2.37-.3,2.37-.91,1.19-1.51H65.5L67,159.75l3.56-.6,1.48-3,2.67-.3L75.87,154l1.19-.3-.3-2.42h1.48l.6-2.12.89-.3.59-.91h5l1.78-1.81,3,.3.89-1.51,1.78-.91,1.19-.9,1.48-.91.3-1.51,4.15-1.21,1.18.6,1.49-3,2.07-.91.6-2.71,8.3-7.26,2.07-.6.6-2.12,1.18.3,1.19-1.51,2.07.61.3-1.51,1.19.3,1.18,3.32h3l1.18.31,1.19-2.42h4.15l2.37,3.32,5.34,7.86,2.67.61,2.66-1.21,2.67-1.21,1.48.91,1.78,2.41,3.56-.3,1.78,2.12h4.15l1.49,2.11,2.66-.3,1.49-3,2.37-.6,1.78-1.81,2.37-.3.89-2.12,1.48-.3,1.19-1.51,1.48-1.82.89,1.21,2.08-3,4.44-.91,4.15,3,4.75,6-.3,4.23,3.26,3.93,5.93,5.14,4.45.91,2.66,2.41,3.57,4.54,5,.6,4.74-.6,4.74.6,2.37,4.24,2.08,5.74,3.56,5.44,3,1.21,3,.9,3.85,2.12,6.82,5.74,3.26.91.89,1.81,3.56-.6,5.93,1.51,3.56.61,4.74,1.21h4.75l6.22,1.2,3.56.61h5l2.37,3h3.26l1.28.65V.11ZM31,79.33,28.06,68.91h-9.8L15.4,79.33H11l9.75-34.4h5.1l9.65,34.4ZM45,72.45a9.41,9.41,0,0,0,7.68,3.46,13.56,13.56,0,0,0,5.41-1l.76,3.58a16,16,0,0,1-7,1.27,13,13,0,0,1-10.42-4.55q-3.87-4.56-3.87-12.7,0-8.38,4.21-13.18a13.84,13.84,0,0,1,10.9-4.78A14.13,14.13,0,0,1,59,45.69l-1,3.63a11.53,11.53,0,0,0-5.15-1.07,9.36,9.36,0,0,0-7.71,3.66q-2.91,3.66-2.91,10.27Q42.19,69,45,72.45Zm23.07,0a9.43,9.43,0,0,0,7.68,3.46,13.52,13.52,0,0,0,5.41-1L82,78.46a16,16,0,0,1-7,1.27,13,13,0,0,1-10.42-4.55q-3.87-4.56-3.87-12.7,0-8.38,4.21-13.18a13.84,13.84,0,0,1,10.9-4.78,14.21,14.21,0,0,1,6.28,1.17l-1,3.63a11.6,11.6,0,0,0-5.16-1.07,9.33,9.33,0,0,0-7.7,3.66q-2.91,3.66-2.91,10.27Q65.27,69,68.1,72.45Zm35.39,6.88H86.8V44.93h16v3.72H91.19V59.52h10.92V63.2H91.19V75.6h12.3ZM122.16,77a11.34,11.34,0,0,1-8,2.71,13.72,13.72,0,0,1-7.35-1.83l1-3.68A12.59,12.59,0,0,0,114.36,76,6.67,6.67,0,0,0,119,74.45a5.35,5.35,0,0,0,1.71-4.16,5.88,5.88,0,0,0-1.28-3.8,12.14,12.14,0,0,0-4.23-3q-7.76-3.78-7.76-9.69a8.65,8.65,0,0,1,2.83-6.64,10.51,10.51,0,0,1,7.38-2.6A12.12,12.12,0,0,1,123.91,46l-1.08,3.62a10.33,10.33,0,0,0-5.3-1.37,5.76,5.76,0,0,0-4.16,1.44,4.65,4.65,0,0,0-1.51,3.51,5,5,0,0,0,1.33,3.64,17.44,17.44,0,0,0,4.59,3,16,16,0,0,1,5.6,4.4,9.28,9.28,0,0,1,1.75,5.65A9.18,9.18,0,0,1,122.16,77Zm21.89,0a11.32,11.32,0,0,1-8,2.71,13.77,13.77,0,0,1-7.35-1.83l1-3.68A12.61,12.61,0,0,0,136.25,76a6.7,6.7,0,0,0,4.68-1.56,5.35,5.35,0,0,0,1.71-4.16,5.94,5.94,0,0,0-1.28-3.8,12.09,12.09,0,0,0-4.24-3q-7.76-3.78-7.76-9.69a8.63,8.63,0,0,1,2.84-6.64,10.48,10.48,0,0,1,7.37-2.6A12.1,12.1,0,0,1,145.8,46l-1.07,3.62a10.4,10.4,0,0,0-5.31-1.37,5.76,5.76,0,0,0-4.16,1.44,4.68,4.68,0,0,0-1.5,3.51,5,5,0,0,0,1.32,3.64,17.71,17.71,0,0,0,4.6,3,16.18,16.18,0,0,1,5.6,4.4A9.34,9.34,0,0,1,147,69.93,9.18,9.18,0,0,1,144.05,77Zm31.45,2.31h-4.39V44.93h4.39ZM183,97.51l-.76-2.18h-2.7l-.82,2.18h-1l2.72-7.12h1L184,97.51Zm9.43,0h-.94l-3.8-5.61v5.61h-.88V90.39h1L191.55,96V90.39h.88Zm-3.71-17.93a52.44,52.44,0,0,1-6.28-.36V45.44a35.74,35.74,0,0,1,7.45-.72q8.15,0,12,4.39t3.84,12.2q0,9-4.27,13.65T188.72,79.58ZM206.25,97.5h-.94l-3.8-5.61V97.5h-.88V90.38h1L205.37,96V90.38h.88Zm4.47,0h-.94V90.38h.94Zm9-.58a3.3,3.3,0,0,1-2.14.76,3.41,3.41,0,0,1-2.61-1,4.27,4.27,0,0,1,0-5.42,3.39,3.39,0,0,1,2.61-1,3.69,3.69,0,0,1,2,.55,2.81,2.81,0,0,1,1.2,1.65l-1,.18a2,2,0,0,0-.81-1.17,2.44,2.44,0,0,0-1.44-.45,2.29,2.29,0,0,0-1.94.91,3.78,3.78,0,0,0,0,4.15,2.31,2.31,0,0,0,1.94.9,2.22,2.22,0,0,0,1.56-.58,2.36,2.36,0,0,0,.77-1.53l1,.12A3.25,3.25,0,0,1,219.75,96.92Zm-3.86-28L213,79.33h-4.39l9.75-34.4h5.1l9.64,34.4h-4.54l-2.91-10.42Zm18.42,28a3.3,3.3,0,0,1-2.14.76,3.38,3.38,0,0,1-2.61-1,4.27,4.27,0,0,1,0-5.42,3.42,3.42,0,0,1,2.61-1,3.71,3.71,0,0,1,2,.55,2.85,2.85,0,0,1,1.2,1.65l-1,.18a2,2,0,0,0-.81-1.17,2.46,2.46,0,0,0-1.44-.45,2.31,2.31,0,0,0-1.94.9,3.8,3.8,0,0,0,0,4.16,2.31,2.31,0,0,0,1.94.9,2.24,2.24,0,0,0,1.56-.58,2.4,2.4,0,0,0,.77-1.53l1,.12A3.25,3.25,0,0,1,234.31,96.92Zm10.26-.27a3.42,3.42,0,0,1-2.62,1,3.38,3.38,0,0,1-2.61-1,4.27,4.27,0,0,1,0-5.42,3.42,3.42,0,0,1,2.61-1,3.46,3.46,0,0,1,2.62,1,4.31,4.31,0,0,1,0,5.42Zm11,.85h-.94V91.77l-2.1,5.73h-.76l-2.1-5.73V97.5h-.94V90.38H250l2.18,5.78,2.18-5.78h1.24Zm-.53-18.17v-16H242.15v16h-4.38V44.93h4.38V59.47h12.92V44.93h4.39v34.4ZM263.85,94a1.91,1.91,0,0,1-1.32.49H260v3h-.94V90.38h3.56a1.83,1.83,0,0,1,1.25.44,2.06,2.06,0,0,1,.61,1.61A2,2,0,0,1,263.85,94ZM272,97.5l-.76-2.18h-2.7l-.82,2.18h-1l2.72-7.12h1L273,97.5Zm-3.91-22.44q-3.45-4.71-3.45-12.78t3.61-13a11.27,11.27,0,0,1,9.46-4.83,10.69,10.69,0,0,1,9.11,4.69q3.39,4.7,3.39,12.66,0,8.58-3.52,13.27a11.2,11.2,0,0,1-9.44,4.69A10.77,10.77,0,0,1,268.11,75.06ZM281.45,97.5h-.94l-3.8-5.61V97.5h-.88V90.38h.95L280.57,96V90.38h.88Zm6.32-3.28V97.5h-.94V94.22l-2.56-3.84h1.13l1.9,3,1.9-3h1.13Z"/><path class="cls-2" d="M242,91a2.31,2.31,0,0,0-1.94.9A3.8,3.8,0,0,0,240,96a2.54,2.54,0,0,0,3.88,0,3.8,3.8,0,0,0,0-4.16A2.31,2.31,0,0,0,242,91Z"/><path class="cls-2" d="M262.3,91.2H260v2.44h2.18c.91,0,1.36-.4,1.36-1.22A1.08,1.08,0,0,0,262.3,91.2Z"/></svg>